<?xml version="1.0" encoding="UTF-8" standalone="no"?>
<!-- Created with Inkscape (http://www.inkscape.org/) -->

<svg
   version="1.1"
   id="svg2"
   width="2829.3333"
   height="2829.3333"
   viewBox="0 0 2829.3333 2829.3333"
   sodipodi:docname="vecteezy_golf-ball-icon_10513223.eps"
   xmlns:inkscape="http://www.inkscape.org/namespaces/inkscape"
   xmlns:sodipodi="http://sodipodi.sourceforge.net/DTD/sodipodi-0.dtd"
   xmlns="http://www.w3.org/2000/svg"
   xmlns:svg="http://www.w3.org/2000/svg">
  <defs
     id="defs6" />
  <sodipodi:namedview
     id="namedview4"
     pagecolor="#ffffff"
     bordercolor="#000000"
     borderopacity="0.25"
     inkscape:showpageshadow="2"
     inkscape:pageopacity="0.0"
     inkscape:pagecheckerboard="0"
     inkscape:deskcolor="#d1d1d1" />
  <g
     id="g8"
     inkscape:groupmode="layer"
     inkscape:label="ink_ext_XXXXXX"
     transform="matrix(1.3333333,0,0,-1.3333333,0,2829.3333)">
    <g
       id="g10"
       transform="scale(0.1)">
      <path
         d="m 2449.45,11034.1 c 5.27,123.8 14.92,247.7 27.21,369.8 30.77,329.4 81.74,652.6 152.84,969.7 102.8,-121.2 169.52,-295.1 180.07,-493.7 16.69,53.7 29.89,109.9 38.66,167.8 39.54,262.7 -18.44,503.3 -137.88,664.9 36.01,135.3 74.59,268.8 117.69,400.6 53.56,166.8 112.4,330.2 176.54,492.7 v 0.9 c 48.33,124.7 101.05,248.5 155.44,369.8 4.38,-28.1 6.17,-56.3 6.17,-86.1 19.32,50.9 35.15,104.5 47.44,159 5.28,22.8 9.65,45.6 12.27,67.6 l 0.92,1.8 c 81.63,173 169.47,341.6 263.47,506.8 l 0.86,0.8 c 0.31,0.6 0.69,1.2 1,1.8 2.19,10.7 3.71,21.3 6.34,32.1 13.15,54.3 31.12,106.7 53.05,157 148.87,341.2 486.06,580.2 822.26,564.4 322.92,-15.3 540.46,-266.8 540.9,-604 23.16,51.1 42.19,104.1 56.07,158.8 108.38,425.9 -123.62,769 -508.27,785.6 -87.44,3.7 -175.04,-10.1 -259.74,-37.4 0.27,0.3 0.52,0.7 0.78,1 31.58,39.6 64.1,79 96.54,118.6 81.74,100.2 166.95,198.5 254.78,294.3 257.33,284.5 534.87,550.7 830.04,794.8 51.79,-79.1 76.42,-176.5 69.36,-285.4 25.5,43.9 46.57,88.7 63.28,135.3 36.88,103.6 46.52,199.3 31.62,284.5 170.37,134.4 345.22,261.8 526.05,382.1 -6.99,-25.5 -11.42,-50.9 -13.12,-75.5 39.49,58.8 87.79,113.3 144.04,160.7 l 2.64,1.8 c 77.28,67.6 168.64,122.9 267.01,164.2 l 2.66,1.7 c 152.81,63.3 321.42,95.8 485.68,86.1 334.65,-19.3 554.23,-204.6 545.46,-465.5 25.46,39.5 46.53,79.9 61.48,121.2 47.97,131.1 38.03,248.5 -16.41,343.6 -76.2,133.1 -240.22,222.1 -460.51,240.5 1063.67,508.6 2254.69,793.2 3512.46,793.2 1580.1,0 3054.9,-448.9 4304.7,-1226.2 -1.7,-3.2 -2.9,-6.7 -4.5,-9.9 51.8,-33.1 102.6,-66.8 152.6,-101 4.2,3 8.3,6.1 12.7,9 358.4,-234.5 698.3,-496.2 1014.4,-783.5 68.6,-61.4 136.2,-124.7 202.9,-190.6 166,-159.8 325.1,-326.7 476.1,-501.5 242.5,-276.7 465.5,-570.9 668.4,-879.2 7.9,-12.3 16.7,-24.6 23.8,-36.9 -286.7,40.7 -537.7,-85.7 -658.2,-317.4 -43.5,-83.6 -70.4,-180.4 -75.3,-288.7 -3.4,-68.5 3.3,-137 17.1,-204 0.5,-2.5 0.8,-5.1 1.3,-7.6 89.7,344.3 415.5,538.4 783.6,458.4 66.7,-14 130,-36.8 190.6,-65.8 v -0.9 c 158.9,-280.2 302.1,-570 427.7,-870.4 26.3,-62.4 51.9,-125.7 76.4,-188.9 53.6,-137.9 103.7,-275.8 149.4,-417.2 v -0.9 c -2.7,-18.4 -4.4,-37.7 -5.3,-57.9 -3.5,-72.1 0.9,-144.1 14,-215.2 9.7,42.1 23.7,81.7 40.4,118.5 56.2,-181.8 105.4,-367.1 148.5,-554.2 38.7,-168.6 72,-339.9 100.1,-513.8 12.3,-72 22.8,-143.2 32.5,-216.1 v -0.9 c -256.5,-79.9 -461.2,-337.3 -496.2,-680.6 -7.9,-76.5 -7.1,-152.1 2.6,-224.9 84.3,285.5 292.5,488.3 534.9,538.4 22,-243.3 33.3,-490.1 33.3,-738.7 0,-174.8 -5.2,-348.6 -16.6,-520.8 -8,-131.7 -19.4,-262.7 -34.3,-392.7 -1.7,-19.3 -3.5,-38.6 -6.1,-58.8 -366.3,21 -720.3,-302.1 -789.6,-750.1 -12.4,-78.2 -15,-153.7 -9.7,-226.6 122.1,353.1 427.7,595.5 743.1,587.6 -71.2,-425.2 -175.7,-839.7 -310.1,-1239.4 -39.5,-118.6 -82.6,-236.2 -128.2,-352.2 -15.8,-42.1 -32.6,-84.3 -50.1,-126.5 -292.5,-93.1 -549.8,-375.1 -623.6,-719.4 -15.8,-71.9 -22,-143.1 -19.3,-209.8 91.3,217.8 259.1,397.8 453.2,498 -122.1,-256.5 -257.3,-505 -405,-745.7 -38.6,-63.3 -78.2,-126.5 -118.5,-188.1 -83.4,-128.2 -170.4,-254.6 -260.8,-377.6 -28.2,-38.6 -56.3,-76.4 -87,-114.2 21.9,47.5 39.5,97.5 51.8,148.5 106.2,426 -151.9,814.3 -587.6,853.7 -435.7,39.6 -877.5,-297.7 -975,-736 -15.8,-71.2 -22,-139.7 -19.3,-204.7 159.9,347.8 544.6,596.4 923.2,564.8 361.8,-30.8 599,-301.3 603.3,-632.4 v -1.8 l -0.8,-0.8 c -94.9,-123 -188.9,-240.7 -290.8,-357.6 l -2.6,-2.6 c -152,-180 -312.7,-353 -481.3,-517.3 -27.2,-28.1 -55.4,-55.3 -83.5,-82.6 -47.4,13.1 -97.4,21.1 -151,24.6 -426.1,26.4 -869.6,-276.7 -979.4,-646.4 -17.6,-59.7 -26.3,-117.8 -26.3,-172.2 151.9,266.1 484.8,473.4 822.1,491 -255.6,-218.7 -525.2,-422.5 -807.2,-607.8 -28.1,-19.3 -56.3,-37.8 -84.3,-55.3 -142.3,-92.3 -287.2,-180.1 -435.7,-262.6 1.8,267.8 -243.3,500.6 -618.3,528.7 -443.6,35.1 -881.9,-238.9 -968.8,-572.7 -14,-53.6 -18.5,-105.4 -14,-154.6 148.3,259.2 527.8,454.1 909.9,425.1 267,-18.4 466.4,-139.6 555.1,-300.3 -372.4,-199.5 -761.6,-370.7 -1165.6,-511.2 -79.9,-27.3 -159.8,-53.6 -241.5,-79.1 -114.2,159 -240.7,307.4 -372.5,439.2 -343.1,345.2 -732.4,306.8 -1125.6,537.1 -256.6,150.4 -437.2,409.3 -722.5,514.6 -287.9,106.3 -604.7,97.1 -892.7,204.2 -605.72,225.3 -536.4,1096.8 -1141.08,1326.4 -256.08,97.3 -549.56,24 -794.35,163.4 -324.1,184.4 -381.21,482.2 -603.42,757.1 -280.22,347.8 -606.09,388.2 -1010.95,439.1 -430.4,53.6 -464.65,137.9 -649.13,492.8 -163.33,315.3 -312.69,577.1 -712.3,649.9 -361.89,65.9 -728.98,-68.5 -1056.63,-130 -4.73,-0.8 -9.86,-1.3 -14.64,-2.1 -61.43,-414.2 -381.87,-666.5 -728.47,-581.9 -99.93,24.5 -192.01,74.5 -272.72,142 3.27,-9 6.66,-17.6 9.94,-26.5 -3.36,9 -7.03,17.7 -10.37,26.7 v 0.9 c -29.75,80.1 -57.81,160.9 -85.07,242 -4.36,13 -8.74,26 -13.03,39 -43.34,131.2 -83.79,263.6 -120.59,398.1 l -0.92,3.4 c -28.05,101.9 -53.54,203.8 -78.2,307.4 86.11,341.7 356.66,557.8 676.35,495.4 310.93,-60.6 564.81,-377.7 622.74,-747.5 13.2,51.9 22.88,106.4 27.26,164.3 36.88,462 -251.21,901.2 -623.62,970.6 -374.16,68.5 -683.34,-242.4 -714.98,-686 -3.48,-45.6 -3.48,-90.5 -0.93,-135.3 -42.11,188 -78.99,377.7 -108.01,570.9 v 1.8 c -11.37,79.1 -22.8,158.1 -31.57,238 v 1 c -22.91,188.7 -39.57,380.2 -49.21,573.5 61.52,-111.6 103.69,-245.1 118.57,-387.4 13.17,51.9 22.87,106.3 28.11,163.4 24.6,254.7 -39.52,497.1 -155.45,669.3 0,129.1 3.49,256.5 10.52,383.8 z M 12426.4,2648.5 c -372.5,-84.9 -754.8,-144.1 -1145.2,-176.4 h -0.9 c -69.4,-5.4 -139.6,-10.6 -209,-14.1 -22.9,52.7 -29.1,110.7 -17.7,173 7.1,35.2 19.4,69.4 37.8,102.8 119.5,222.3 476.1,388.2 857.3,354.9 343.5,-28.1 588.5,-204.7 636.8,-402.3 -52.8,-13.2 -105.8,-25.8 -159.1,-37.9 z m -3603.7,-7.8 c -353.08,78.2 -695.63,179.2 -1029.42,301.3 h -0.88 c -36,14.1 -71.18,27.2 -107.16,41.3 l -0.87,8.8 c -0.88,38.5 4.36,76.4 14.91,111.5 71.17,246 396.11,411.9 785.25,359.3 372.44,-50.1 669.3,-277.6 743.97,-517.4 14.9,-47.5 21.09,-94.8 17.54,-141.4 -7.02,-88.7 -45.66,-166.1 -108.07,-227.5 -106.26,19.4 -211.62,40.4 -315.27,64.1 z m -2558.59,1053.2 -3.53,2.6 c -38.61,20.2 -75.59,43.9 -110.7,71.1 l -4.35,2.7 c -106.31,68.5 -210.79,140.5 -313.58,215.2 -3.47,21.9 -5.23,43.9 -6.15,66.7 -1.76,45.7 2.68,89.6 13.13,131.8 64.14,289 378.61,473.3 765.05,403.9 369.79,-65.8 677.27,-338.1 765.06,-629.7 17.57,-57.1 26.34,-115.9 25.49,-173.9 -4.39,-251.2 -180.93,-426 -435.66,-481.3 -238.93,118.6 -469.89,249.4 -694.76,390.9 z m -1285.89,1001.2 -1.75,0.9 c -273.17,259.2 -527.86,537.6 -762.43,832.7 107.99,237.1 367.99,368 679.83,301.2 349.59,-74.6 647.37,-375.9 735.21,-703.4 16.72,-65.1 25.49,-131 25.49,-196 -1.78,-259.9 -145,-447.9 -359.3,-522.6 -108.9,93.1 -213.41,187.2 -317.05,287.2 z M 4210.8,7352.7 c 87.17,351.4 401.19,573.2 773.17,501.9 357.67,-68.1 648.47,-392.3 717.56,-761 13.35,-71.2 19.29,-143.9 14.89,-217 -26.65,-451.2 -394.64,-730.4 -813.25,-641.2 -419.07,89.4 -734.67,510.5 -715.78,954 2.43,56.9 10.55,111.5 23.41,163.3 z M 5857.25,5998.2 c 89.62,338.7 428.12,554.7 826.91,484.2 383.55,-67.3 691.39,-379.4 764.96,-728.9 14.25,-67.7 20.61,-136.7 16.06,-205.7 -28.15,-425.5 -410.6,-685.9 -853.81,-607.1 -443.51,79.4 -790.86,473 -777.15,900.1 1.76,54.8 9.77,107.4 23.03,157.4 z M 7742.03,4709.5 c 95.78,312 449.69,518 858.72,456.2 393.45,-58.5 699.41,-342.6 765.45,-657.4 12.84,-61.2 17.54,-123.3 11.09,-185.3 -40.02,-382.1 -430.01,-614 -876.8,-553.2 -446.97,61.3 -800.66,403.4 -783.58,794.8 2.19,50.3 10.94,98.7 25.12,144.9 z M 9499.55,3624.7 c 105.53,273 464.26,463.3 866.05,414.8 386.4,-45.2 672.7,-290.5 720.9,-559.6 9.4,-52.3 10.7,-105.5 1,-158.4 -60.5,-325.4 -451.7,-519.3 -882.5,-478.3 -430.71,41.5 -764.94,316.2 -735.24,655.3 3.82,43.6 14.13,85.8 29.79,126.2 z M 3837.21,6039.9 v 0.8 c -36.88,54.5 -72.85,108.9 -108.89,164.3 -206.41,322.4 -391.76,659.7 -551.58,1011 9.65,-1.8 18.46,-3.5 28.12,-6.2 306.51,-76.4 571.74,-390 647.34,-737.7 v -0.9 c 14.93,-68.6 21.94,-138 21.02,-207.4 -0.8,-80.7 -14,-156.3 -36.01,-223.1 98.4,-144.9 200.29,-286.3 308.34,-424.2 -108.05,137.9 -209.94,279.3 -308.34,423.4 z M 2148.73,10190 c 9.69,-193.8 26.54,-391.4 50.14,-587.3 l 0.49,-4.8 c 8.96,-81.7 20.38,-161.4 31.48,-238.6 l 1.62,-13 c 27.72,-184.6 63.43,-374.2 109.15,-579.4 1.17,-6.9 2.59,-13.7 4.24,-20.6 3.99,-20.2 8.31,-39 12.47,-56.7 28.54,-119.9 53.97,-220 80.13,-315.2 l 1.84,-6.9 c 14.18,-52.8 28.97,-104.3 44.01,-153 53.07,-181.2 113.02,-362.3 178.24,-538.5 l 3.96,-11.6 c 24.83,-67.6 50.24,-131.5 71.82,-185.2 52.81,-133.5 109.21,-265 166.94,-389.3 160.76,-353.5 353.2,-706.2 570.99,-1046.3 37.77,-58.1 71.64,-109.3 104.14,-157.4 3.04,-5.1 6.25,-10.2 9.61,-15 109.71,-160.7 213.48,-303.3 317.15,-435.8 21.97,-29.7 46.21,-60.8 73.93,-94.7 242.86,-305.4 508.43,-595.3 789.38,-861.9 l 12.39,-11.1 c 98.58,-94.7 202.72,-188.8 317.89,-287.3 188.3,-161.5 370.59,-304.9 556.99,-438.3 102.9,-74.8 206.61,-146.2 307.11,-211.4 12.26,-9.4 25.24,-17.9 38.79,-25.3 24.75,-16.4 51.96,-34.1 80.82,-52.1 11.6,-8.5 23.75,-16.1 36.47,-23 233.45,-146.1 470.47,-279.1 704.84,-395.5 238.17,-120 491.98,-231.7 752.76,-331.2 16.25,-6.4 34.49,-13.3 52.71,-20.3 17.32,-6.6 34.65,-13.2 52.16,-20.1 6.29,-2.4 12.66,-4.7 19.13,-6.7 345.79,-125.9 700.82,-229.5 1055.48,-308 99.15,-22.7 206.6,-44.6 326.42,-66.4 496.32,-90.7 1008.58,-136.6 1522.18,-136.6 160.3,0 322.3,4.6 481.7,13.6 69.3,3.5 138.9,8.7 209.9,14.2 l 7.6,0.4 c 456.3,37.8 910,112.2 1348.5,221.3 9.4,2.2 18.5,4.5 27.5,6.9 l 6.2,1.6 6.6,1.6 c 144.5,36.9 276.5,73.8 403.4,113 l 4.1,1.2 c 10.3,3.1 23.8,7.2 39.1,12.7 77,24.1 156.1,50 241.9,79.2 415.1,144.5 821.1,322.5 1208.3,529.7 50.6,26.3 98.9,52.4 143.7,77.8 147.3,81.9 298.6,173.2 449.9,271.2 30.1,18.9 60.3,38.8 89.9,58.9 286.9,188.8 567.8,400.4 835,629.1 117.7,101.3 234,206.7 346.3,313.5 l 2,1.9 c 29,28.1 58,56.2 87.1,86.2 168.9,164.6 333.2,341 488.5,524.2 5,5.3 9.8,10.8 14.4,16.4 91.2,104.8 182.6,217.3 295.3,363.3 6.8,8.6 13.1,17.6 18.9,26.8 28.9,36.6 54.9,71.8 79.1,104.9 89.5,121.8 180.6,253.5 269.7,390.6 37.7,57.4 78.1,121.6 123.1,195.3 153.2,249.7 294.5,510 419.7,773 2.1,4.5 4.2,8.9 6,13.5 68.4,143.5 132.4,289 190.5,433 19,45.6 36.6,90.2 52.6,132.8 48.5,123.3 93.1,246 132.7,364.7 140.3,417.2 248.5,849.7 321.3,1284.6 22.1,130.3 41.2,262.2 58.2,402.5 2.6,20.7 4.7,42.4 6.7,64.3 15.3,133.7 27.1,270 35.3,405.2 11.4,172.1 17.2,354 17.2,538.8 0,253.8 -11.6,511.4 -34.6,765.6 -10.2,119.5 -24.3,245.6 -41.9,373.6 l -0.8,6.8 c -10.7,81.1 -21.8,155 -33.9,225.9 -28.9,178.6 -63.7,357.4 -103.6,531.6 -46.1,199.9 -98,393.5 -154.3,575.8 -13,43 -29.6,97.2 -47.9,151.4 l -2.4,7.5 c -43.9,136.2 -94.7,278 -155.1,433.7 -26.8,68.9 -53.7,135.2 -79.8,197 -124.9,298.9 -271.5,597.8 -435.4,887.9 -2.3,4.7 -4.7,9.4 -7.3,13.9 -84.2,149.4 -173.6,296.2 -265.7,436.4 -7.7,13 -15.1,24 -20.8,32.5 l -5.3,8.1 -1.7,2.6 c -211.8,321.7 -445,628.5 -693.4,911.9 -151.7,175.6 -317.8,350.6 -492.3,518.6 -67.6,66.7 -136.9,131.8 -211.9,199 -322.5,293 -676.4,566.4 -1050.4,811.1 -61.7,40.6 -116.8,75.5 -168,106.6 -1337,831.1 -2879.6,1270.4 -4461.4,1270.4 -1270.21,0 -2491.08,-274.7 -3628.71,-816.3 l -12.57,-5.6 c -217.37,-102.7 -432.37,-216.7 -639.07,-338.7 l -5.58,-3.4 -2.33,-1.4 c -99.05,-57.8 -181.17,-108.1 -256.04,-157 -11.62,-6.4 -22.77,-13.6 -33.43,-21.5 -35.74,-22.5 -73.91,-47.5 -120.88,-79.2 -181.49,-120.7 -365.06,-254 -544.18,-395.2 l -2.46,-2 -49.44,-39.8 -45.45,-36.6 -5.85,-4.8 c -7.77,-6.6 -15.67,-13.1 -23.6,-19.5 -15.56,-12.8 -31.16,-25.6 -46.5,-39.1 -302.68,-250.7 -591.21,-527.1 -857.66,-821.8 -91.08,-99.3 -180.6,-202.7 -264.72,-305.8 l -7.72,-9.4 c -30.59,-37.2 -61.1,-74.4 -90.84,-111.7 -126.39,-159.2 -249.02,-326 -365.07,-496.5 l -5.9,-8.3 c -105.18,-154.5 -206.84,-315.6 -302.21,-478.9 -25.04,-41.2 -45.48,-76.7 -63.53,-110.4 l -2.7,-4.6 c -97.72,-171.7 -189.41,-348 -272.54,-524 l -1.47,-3 h -0.02 l -16.34,-33.9 c -17.11,-35.4 -34.21,-70.8 -51.33,-107.7 -4.17,-9 -7.87,-18.2 -11.12,-27.5 -57.97,-130 -107.74,-248.9 -151.88,-362.8 l -4.07,-11.1 c -66.64,-169.6 -125.04,-333 -178.36,-499.2 -41.22,-125.9 -81.27,-262.2 -121.94,-415 -31.9,-119.1 -60.41,-238.3 -84.59,-353.8 l -1.29,-6.6 c -72.46,-325 -125.11,-660.5 -156.6,-997.5 -13.69,-135.7 -22.97,-261.8 -28.15,-383.2 -7.16,-130 -10.72,-257.5 -10.87,-389.4 -0.87,-17.8 -0.87,-33.6 -0.87,-45.7 0,-134.2 3.19,-270.8 9.8,-417.6 l 0.21,-5.8"
         style="fill:#FF0000;fill-opacity:1;fill-rule:nonzero;stroke:none"
         id="path12" />
      <path
         d="m 3135.45,12850.3 c 126.49,361.2 442.58,612.6 776.99,584.9 321.26,-26.4 552.98,-312 571.58,-678.5 20.33,54.7 36.45,111.8 47.39,171 85.97,462.2 -167.29,854.5 -550.69,882.8 -384.16,28.4 -748.96,-305.5 -830.25,-750.1 -13.08,-71.7 -17.34,-142.1 -15.02,-210.1"
         style="fill:#FF0000;fill-opacity:1;fill-rule:nonzero;stroke:none"
         id="path14" />
      <path
         d="m 3559.71,11340.7 c 316.19,-43.1 561.21,-350.5 598.98,-726.4 16.7,53.6 29.02,110.7 36.9,170.4 61.48,474.3 -209.91,899.4 -589.36,946.8 -379.41,47.5 -714.98,-284.5 -771.2,-737.8 -8.77,-73.8 -10.55,-145.8 -3.49,-216.9 103.62,363.6 397.85,608.6 728.17,563.9"
         style="fill:#FF0000;fill-opacity:1;fill-rule:nonzero;stroke:none"
         id="path16" />
      <path
         d="m 8935.59,18461 c -392.72,25.6 -809.43,-125.5 -934.17,-392.8 -5.56,-11.9 -9.53,-23.8 -13.65,-35.8 305.32,171.9 649.61,313.5 1024.3,421 -24.86,3.2 -50.29,5.9 -76.48,7.6"
         style="fill:#FF0000;fill-opacity:1;fill-rule:nonzero;stroke:none"
         id="path18" />
      <path
         d="m 7555.23,13467.2 c -465.5,50.9 -905.54,-286.4 -989.88,-762.5 -14.03,-78.1 -16.69,-154.5 -10.53,-229.2 144.95,385.6 530.5,639.4 939.81,592.9 390.86,-44 681.64,-356.6 721.11,-745.8 21.12,56.3 37.83,116 47.44,177.5 78.21,487.5 -242.38,915.2 -707.95,967.1"
         style="fill:#FF0000;fill-opacity:1;fill-rule:nonzero;stroke:none"
         id="path20" />
      <path
         d="m 6223.72,10251.5 c 129.99,390 505.91,646.5 916.97,589.4 394.35,-54.5 694.76,-383.8 745.68,-780.9 19.35,57.1 33.4,116.9 42.18,179.2 66.8,498.9 -268.76,954.8 -739.58,1017.2 -471.67,63.2 -899.4,-283.7 -963.47,-772.1 -10.6,-79.1 -10.6,-157.3 -1.78,-232.8"
         style="fill:#FF0000;fill-opacity:1;fill-rule:nonzero;stroke:none"
         id="path22" />
      <path
         d="m 6901.8,9033.3 c -469.09,72.9 -878.39,-260.9 -920.53,-735.2 -7.02,-76.4 -4.34,-152.8 7.86,-226.6 110.69,374.2 470.83,616.6 879.27,551.5 391.74,-62.3 698.28,-392.5 758.87,-777.2 18.46,55.2 30.72,113.2 36.93,173.8 50.91,481.4 -293.45,940.8 -762.4,1013.7"
         style="fill:#FF0000;fill-opacity:1;fill-rule:nonzero;stroke:none"
         id="path24" />
      <path
         d="m 5901.34,14281.4 c 359.24,-30.8 619.21,-316.2 640.3,-683.4 22.88,54.5 40.39,110.7 51.82,169.5 92.25,461.2 -188.84,851.1 -617.46,885.4 -429.5,34.2 -848.44,-289.9 -945.1,-738.7 -15.84,-72 -21.95,-143.2 -19.35,-212.5 148.48,364.5 513.86,612.2 889.79,579.7"
         style="fill:#FF0000;fill-opacity:1;fill-rule:nonzero;stroke:none"
         id="path26" />
      <path
         d="m 4644.47,11825.5 c -12.3,-77.3 -14.96,-152.8 -8.77,-226.6 128.21,380.3 480.41,635.9 860.7,591.1 363.67,-42.1 635.94,-355.7 673.7,-743 20.19,56.2 34.28,115 43.9,176.5 75.57,486.6 -225.7,917.9 -659.58,966.1 -434.81,48.4 -836.17,-292.5 -909.95,-764.1"
         style="fill:#FF0000;fill-opacity:1;fill-rule:nonzero;stroke:none"
         id="path28" />
      <path
         d="m 5224.14,10397.3 c -433.01,65 -813.36,-269.6 -862.52,-740.4 -7.89,-77.3 -7.07,-152.8 2.63,-226.6 108,375 442.64,620.1 821.21,561.3 361.04,-57.1 644.77,-382.1 698.31,-769.4 17.57,55.2 29.86,113.3 36.88,174.7 53.6,484.8 -263.52,936.3 -696.51,1000.4"
         style="fill:#FF0000;fill-opacity:1;fill-rule:nonzero;stroke:none"
         id="path30" />
      <path
         d="m 11265.4,10700.4 c -503.3,69.4 -968,-282 -1035.6,-785.2 -11.4,-80.9 -11.4,-161.7 -1.8,-239 143.2,400.6 551.6,660.5 990.8,599.9 421.6,-57.9 735.2,-392.6 785.2,-794 21.1,58 36,119.4 44.9,182.7 70.2,501.6 -281.2,966.2 -783.5,1035.6"
         style="fill:#FF0000;fill-opacity:1;fill-rule:nonzero;stroke:none"
         id="path32" />
      <path
         d="m 10953.5,8439.5 c -500.6,68.5 -957.37,-276.6 -1017.95,-758.9 -9.65,-78.1 -8.77,-155.4 1.75,-229.2 134.4,381.2 536.6,633.2 971.5,574.4 418,-56.2 727.2,-379.4 776.4,-759.7 21.1,54.4 36,112.4 44.8,172.1 71.2,479.6 -275.8,933.7 -776.5,1001.3"
         style="fill:#FF0000;fill-opacity:1;fill-rule:nonzero;stroke:none"
         id="path34" />
      <path
         d="m 10616.3,5883.5 c 404.9,-52.6 706.1,-346 753.6,-682.5 20.2,49.3 34.2,100.2 43,154.7 68.6,425.1 -268.7,842.3 -757.1,906.4 -488.4,65 -927.51,-252.1 -975.84,-685.1 -7.89,-69.4 -5.25,-137.9 6.19,-202.9 122.89,337.2 506.75,565.6 930.15,509.4"
         style="fill:#FF0000;fill-opacity:1;fill-rule:nonzero;stroke:none"
         id="path36" />
      <path
         d="m 8409.86,11333.6 c -12.27,-80.8 -13.15,-161.6 -3.53,-238.9 142.29,398.8 543.75,657.9 975.88,599.9 413.69,-54.5 724.69,-385.6 773.79,-787.8 21.1,57.9 36.9,119.4 45.7,183.6 70.3,502.4 -276.7,958.3 -769.43,1022.4 -492.74,64.1 -948.6,-282.9 -1022.41,-779.2"
         style="fill:#FF0000;fill-opacity:1;fill-rule:nonzero;stroke:none"
         id="path38" />
      <path
         d="m 9108.13,9829.1 c -495.37,70 -943.06,-278.4 -1002.18,-771.5 -9.52,-79.7 -7.41,-158 3.16,-234.2 131.13,390.7 524.48,646 955.87,584.2 414.91,-59 728.23,-394.5 781.53,-791 20.25,57.7 35.08,118.4 43.43,181.9 65.2,496.1 -286.23,960.9 -781.81,1030.6"
         style="fill:#FF0000;fill-opacity:1;fill-rule:nonzero;stroke:none"
         id="path40" />
      <path
         d="m 8834.14,7606.9 c -488.4,73.7 -918.77,-255.7 -960.06,-717.6 -6.99,-74.8 -3.47,-147.7 9.65,-218.7 115.96,361.9 493.69,598.9 917.85,535.7 407.6,-60.6 719.44,-379.4 778.26,-746.6 18.46,52.7 31.64,108.1 38.64,166 56.23,461.1 -295.1,909.2 -784.34,981.2"
         style="fill:#FF0000;fill-opacity:1;fill-rule:nonzero;stroke:none"
         id="path42" />
      <path
         d="m 16315.7,13339.1 c 5.8,19.6 10.1,39.9 14.4,60.3 -6.7,-8.8 -13.4,-17.6 -20.2,-26.3 2.4,-11.2 3.8,-22.7 5.8,-34"
         style="fill:#FF0000;fill-opacity:1;fill-rule:nonzero;stroke:none"
         id="path44" />
      <path
         d="m 15401,12390 c -469.7,77.7 -903.7,-249.8 -963,-740.9 -9.7,-79.4 -7.7,-157.8 2.6,-234.1 132.9,391.5 518.2,636.1 929.3,569.6 395.3,-64 690.7,-390.7 742.5,-780.2 18.4,56.7 31.6,116.2 38.5,178.1 53.2,482.3 -279.8,929.6 -749.9,1007.5"
         style="fill:#FF0000;fill-opacity:1;fill-rule:nonzero;stroke:none"
         id="path46" />
      <path
         d="m 15135.7,10159.2 c -475.9,68.4 -926.7,-279.6 -998.7,-776.1 -11.7,-80.2 -11.7,-158.8 -3.3,-234.9 143.9,394.6 541.1,653 956.2,595.2 399.2,-55.4 685.9,-378.9 723.4,-766.5 20.8,57 36.4,116.8 45.8,179.1 73.2,485.4 -247.2,935.1 -723.4,1003.2"
         style="fill:#FF0000;fill-opacity:1;fill-rule:nonzero;stroke:none"
         id="path48" />
      <path
         d="m 14800.9,7950.4 c -474.2,56.8 -931.8,-290 -1012.6,-762.8 -13,-76.2 -14.7,-150.5 -8.1,-222.1 150.5,374.2 550.8,629.6 963,582.1 396.2,-45.3 671.1,-349.5 695.5,-713.8 22.4,54.1 39.9,110.8 51.4,169.7 90.2,461.4 -214.7,890.5 -689.2,946.9"
         style="fill:#FF0000;fill-opacity:1;fill-rule:nonzero;stroke:none"
         id="path50" />
      <path
         d="m 14403.5,5837.6 c -463.8,45 -917.4,-277.3 -1003.2,-695.6 -13.8,-67.3 -16.6,-132.3 -11.5,-194.8 152,328.6 546.3,563.1 947.6,525.7 385.9,-35.2 644.9,-304.4 656.7,-622.9 23.5,47.5 42.4,97.5 55.7,149.6 104,408 -181.4,793.8 -645.3,838"
         style="fill:#FF0000;fill-opacity:1;fill-rule:nonzero;stroke:none"
         id="path52" />
      <path
         d="m 13338.3,11572.5 c -494.6,72.9 -954,-272.2 -1022.5,-773.8 -11.4,-82.5 -11.4,-163.3 -0.8,-242.4 141.4,402.3 548,660.5 981.1,597.3 413.7,-59.8 723.7,-390.9 773,-789.6 21,57.9 35,117.6 43.8,180.9 65.9,497.1 -280.1,955.6 -774.6,1027.6"
         style="fill:#FF0000;fill-opacity:1;fill-rule:nonzero;stroke:none"
         id="path54" />
      <path
         d="m 13027.3,9289.8 c -496.3,66.7 -960.9,-285.5 -1032,-779.2 -11.4,-80.7 -12.3,-159 -1.8,-235.4 143.2,392.7 552.5,652.7 984.7,595.6 415.4,-55.4 717.5,-380.3 758.9,-767.8 21,56.3 36.8,116 46.4,177.5 77.3,487.5 -259.1,942.5 -756.2,1009.3"
         style="fill:#FF0000;fill-opacity:1;fill-rule:nonzero;stroke:none"
         id="path56" />
      <path
         d="m 12691.1,7087.2 c -489.4,59.9 -947.7,-276.8 -1016.8,-733.7 -11.1,-73.6 -10.7,-145.3 -2.1,-214.5 141.4,359.3 542,604.3 966.3,553.5 408.1,-48.2 698.4,-350.1 731.8,-704.2 21.9,52.1 38.8,107 49.7,164.3 84.7,448.6 -239.1,875.4 -728.9,934.6"
         style="fill:#FF0000;fill-opacity:1;fill-rule:nonzero;stroke:none"
         id="path58" />
      <path
         d="m 12339.6,5047.4 c -472.6,50.9 -913.5,-247.7 -975.8,-636.8 -10.6,-63.2 -10.6,-123.8 -1.8,-181.9 132.6,303.1 516.5,517.4 924,474.3 390.8,-40.4 666.7,-298.6 694.8,-592.8 21,43 36.8,87.8 48.3,135.2 88.6,378.6 -217.8,751.9 -689.5,802"
         style="fill:#FF0000;fill-opacity:1;fill-rule:nonzero;stroke:none"
         id="path60" />
      <path
         d="m 17445.1,13076.8 c -427.4,85.8 -816.8,-215.8 -859.3,-686.8 -7,-76.2 -3.2,-151.7 8.1,-225.3 113.5,374.6 461.1,600 835.1,526.9 359.8,-70.5 631.4,-387.8 686.3,-760.8 15.1,53.7 25.4,110.2 30,169 35.7,458.2 -272.3,890.8 -700.2,977"
         style="fill:#FF0000;fill-opacity:1;fill-rule:nonzero;stroke:none"
         id="path62" />
      <path
         d="m 17258.8,10970 c -434.5,72.5 -848.5,-260 -912,-747 -10.3,-78.6 -9.8,-155.8 -1.5,-230.7 132,387.4 498.1,635.4 877.5,574.9 365.1,-58.2 626.7,-374.2 664,-752.1 18.1,55.5 31.5,113.6 39.3,174.1 60.3,470.8 -232.4,908.2 -667.3,980.8"
         style="fill:#FF0000;fill-opacity:1;fill-rule:nonzero;stroke:none"
         id="path64" />
      <path
         d="m 16963.9,8781.4 c -437.8,55.7 -870,-290.1 -952.2,-766.6 -13.3,-77 -15.8,-151.9 -10.4,-224.2 147.5,379.1 526.5,636.3 908,590.4 366.8,-43.6 616.9,-343.9 636.7,-708.5 21,54.5 37.3,111.4 48.1,170.6 84,460.8 -192.2,883 -630.2,938.3"
         style="fill:#FF0000;fill-opacity:1;fill-rule:nonzero;stroke:none"
         id="path66" />
      <path
         d="m 6398.63,16194.2 c 351.42,-22.5 591.45,-265.3 598.22,-590 24.14,48.8 43.65,99.5 57.41,151.7 93.54,355.1 -91.27,648.9 -417.17,734 -46.7,12.2 -96.32,20.1 -148.43,23.3 -416.17,25.2 -845.61,-255.1 -964.79,-652.8 -19.26,-64.3 -28.09,-127.6 -29.1,-189 165.7,327.6 538.08,545.8 903.86,522.8"
         style="fill:#FF0000;fill-opacity:1;fill-rule:nonzero;stroke:none"
         id="path68" />
    </g>
  </g>
</svg>
